<?xml version="1.0" encoding="UTF-8" standalone="no"?>
<!DOCTYPE svg PUBLIC "-//W3C//DTD SVG 1.1//EN" "http://www.w3.org/Graphics/SVG/1.1/DTD/svg11.dtd">
<svg xmlns="http://www.w3.org/2000/svg" version="1.1" viewBox="0.00 0.00 398.00 150.00">
<g stroke-width="2.00" fill="none" stroke-linecap="butt">
<path stroke="#a2a2a3" vector-effect="non-scaling-stroke" d="
  M 348.50 21.46
  L 348.25 22.81
  Q 348.15 23.30 348.62 23.46
  C 365.26 29.37 379.19 45.25 383.05 62.36
  C 388.92 88.43 374.96 113.82 350.72 124.09
  C 346.77 125.76 343.58 127.49 339.94 129.22"
/>
<path stroke="#a2a2a3" vector-effect="non-scaling-stroke" d="
  M 318.75 128.81
  Q 318.66 128.15 318.82 127.87
  Q 318.96 127.63 318.70 127.53
  C 306.66 123.01 296.66 117.74 288.46 107.49
  Q 279.56 96.39 277.79 82.98
  C 274.69 59.52 284.86 37.56 305.75 26.66
  Q 311.58 23.61 318.80 21.30
  Q 320.32 20.81 320.25 19.60"
/>
<path stroke="#adaeae" vector-effect="non-scaling-stroke" d="
  M 305.19 28.69
  C 287.82 37.88 278.24 56.47 278.42 75.04
  C 278.63 96.64 291.25 114.04 310.97 122.95
  Q 313.23 123.96 313.54 121.51
  L 314.49 114.04"
/>
<path stroke="#ececec" vector-effect="non-scaling-stroke" d="
  M 314.49 114.04
  Q 328.62 119.74 342.57 115.57"
/>
<path stroke="#cfd0d0" vector-effect="non-scaling-stroke" d="
  M 342.57 115.57
  Q 342.51 119.59 343.90 123.61
  Q 344.08 124.12 344.63 124.06
  C 349.37 123.45 355.32 120.13 358.86 118.03"
/>
<path stroke="#adaeae" vector-effect="non-scaling-stroke" d="
  M 358.86 118.03
  C 372.90 108.48 381.83 94.20 382.10 77.26
  C 382.19 71.56 382.51 65.82 380.81 61.07
  A 1.85 1.84 40.4 0 1 380.73 60.11
  C 381.07 58.34 379.81 57.43 379.38 56.26
  Q 371.84 35.72 351.23 26.47"
/>
<path stroke="#cfd0d0" vector-effect="non-scaling-stroke" d="
  M 351.23 26.47
  Q 347.73 25.33 343.80 24.18
  C 337.66 22.39 331.14 22.80 324.82 22.87
  Q 320.75 22.91 318.04 24.14
  A 1.66 1.61 36.2 0 1 317.09 24.27
  C 314.75 23.93 312.76 25.43 311.22 25.91
  Q 308.08 26.88 305.19 28.69"
/>
<path stroke="#a4a4a5" vector-effect="non-scaling-stroke" d="
  M 351.23 26.47
  L 349.86 35.84"
/>
<path stroke="#e3e3e3" vector-effect="non-scaling-stroke" d="
  M 349.86 35.84
  Q 328.32 25.59 308.08 37.69"
/>
<path stroke="#a4a4a5" vector-effect="non-scaling-stroke" d="
  M 308.08 37.69
  Q 305.86 34.15 306.63 30.07
  C 306.86 28.86 306.31 28.58 305.19 28.69"
/>
<path stroke="#e3e3e3" vector-effect="non-scaling-stroke" d="
  M 356.22 108.85
  Q 350.02 113.07 342.57 115.57"
/>
<path stroke="#c1c1c1" vector-effect="non-scaling-stroke" d="
  M 308.08 37.69
  C 277.39 56.26 282.28 100.86 314.49 114.04"
/>
<path stroke="#a4a4a5" vector-effect="non-scaling-stroke" d="
  M 358.86 118.03
  C 357.62 115.05 358.61 111.15 356.22 108.85"
/>
<path stroke="#c1c1c1" vector-effect="non-scaling-stroke" d="
  M 356.22 108.85
  C 381.91 89.22 378.44 50.66 349.86 35.84"
/>
<path stroke="#c1c1c1" vector-effect="non-scaling-stroke" d="
  M 301.95 46.66
  C 286.90 61.52 287.84 84.25 300.17 100.44"
/>
<path stroke="#e3e3e3" vector-effect="non-scaling-stroke" d="
  M 300.17 100.44
  C 310.01 110.73 323.61 116.08 337.98 113.23"
/>
<path stroke="#cbcccc" vector-effect="non-scaling-stroke" d="
  M 337.98 113.23
  C 362.13 108.65 377.02 83.59 367.92 60.31
  C 363.00 47.70 353.01 38.90 339.61 35.58"
/>
<path stroke="#e3e3e3" vector-effect="non-scaling-stroke" d="
  M 339.61 35.58
  C 325.92 32.25 311.68 36.69 301.95 46.66"
/>
<path stroke="#afafb0" vector-effect="non-scaling-stroke" d="
  M 339.61 35.58
  Q 338.96 35.83 338.94 36.05"
/>
<path stroke="#e3e3e3" vector-effect="non-scaling-stroke" d="
  M 338.94 36.05
  L 337.59 36.01
  Q 337.10 35.99 336.95 36.46
  C 334.74 43.36 332.29 61.03 321.57 59.66
  C 316.37 59.00 307.81 51.51 303.48 47.70
  Q 303.21 47.47 302.85 47.50
  L 302.56 47.53"
/>
<path stroke="#a4a4a5" vector-effect="non-scaling-stroke" d="
  M 302.56 47.53
  Q 302.63 46.70 301.95 46.66"
/>
<path stroke="#a4a4a5" vector-effect="non-scaling-stroke" d="
  M 301.05 99.43
  Q 300.80 100.17 300.17 100.44"
/>
<path stroke="#e3e3e3" vector-effect="non-scaling-stroke" d="
  M 337.80 112.77
  Q 337.73 112.54 337.41 112.48
  Q 337.02 112.40 336.93 112.02
  C 334.98 104.17 331.45 84.01 318.26 90.07
  C 312.91 92.52 307.92 96.94 303.51 100.83
  Q 303.11 101.18 302.64 100.91
  Q 301.80 100.43 301.05 99.43"
/>
<path stroke="#c1c1c1" vector-effect="non-scaling-stroke" d="
  M 301.05 99.43
  L 296.84 93.27
  A 1.25 1.25 0.0 0 1 297.25 91.48
  C 303.17 88.08 314.65 81.71 314.40 73.85
  C 314.18 66.63 302.55 59.92 296.98 56.91
  A 0.97 0.97 0.0 0 1 296.57 55.61
  Q 298.91 51.05 302.56 47.53"
/>
<path stroke="#afafb0" vector-effect="non-scaling-stroke" d="
  M 337.98 113.23
  L 337.80 112.77"
/>
<path stroke="#cbcccc" vector-effect="non-scaling-stroke" d="
  M 337.80 112.77
  Q 342.82 111.54 347.23 109.35
  A 1.05 1.05 0.0 0 0 347.70 107.95
  C 345.20 102.88 340.73 91.92 341.93 87.20
  C 344.58 76.71 360.05 79.36 368.01 79.80
  A 1.03 1.02 1.3 0 0 369.10 78.76
  L 368.96 69.16
  A 0.61 0.60 -2.6 0 0 368.30 68.56
  Q 361.70 69.10 355.04 69.04
  C 335.03 68.84 342.58 51.25 347.47 41.01
  A 1.40 1.40 0.0 0 0 346.71 39.11
  L 338.94 36.05"
/>
<path stroke="#ececec" vector-effect="non-scaling-stroke" d="
  M 333.25 67.19
  Q 333.72 67.35 333.97 67.15"
/>
<path stroke="#cbcccc" vector-effect="non-scaling-stroke" d="
  M 333.97 67.15
  C 336.97 67.92 339.72 64.50 337.87 62.41
  C 334.11 58.17 327.05 62.76 331.46 66.81
  Q 332.34 67.62 333.25 67.19"
/>
<path stroke="#b8b9b9" vector-effect="non-scaling-stroke" d="
  M 333.97 67.15
  Q 334.15 66.53 335.08 66.25
  Q 335.59 66.10 335.60 65.58
  L 335.65 62.72
  A 1.60 1.60 0.0 0 0 332.63 61.96
  Q 331.28 64.59 333.25 67.19"
/>
<path stroke="#c1c1c1" vector-effect="non-scaling-stroke" d="
  M 320.68 64.70
  C 317.60 64.73 317.12 70.16 320.63 71.08"
/>
<path stroke="#ececec" vector-effect="non-scaling-stroke" d="
  M 320.63 71.08
  Q 321.65 72.17 323.53 70.88"
/>
<path stroke="#c1c1c1" vector-effect="non-scaling-stroke" d="
  M 323.53 70.88
  C 326.69 69.99 326.64 64.65 322.59 64.56"
/>
<path stroke="#ececec" vector-effect="non-scaling-stroke" d="
  M 322.59 64.56
  Q 322.13 64.14 320.68 64.70"
/>
<path stroke="#adaeae" vector-effect="non-scaling-stroke" d="
  M 322.59 64.56
  Q 324.36 66.03 323.53 70.88"
/>
<path stroke="#adaeae" vector-effect="non-scaling-stroke" d="
  M 320.63 71.08
  Q 319.79 67.64 320.68 64.70"
/>
<path stroke="#e3e3e3" vector-effect="non-scaling-stroke" d="
  M 330.7530 68.3490
  A 1.78 0.27 -11.7 0 0 328.9552 68.4456
  A 1.78 0.27 -11.7 0 0 327.2670 69.0710
  A 1.78 0.27 -11.7 0 0 329.0648 68.9744
  A 1.78 0.27 -11.7 0 0 330.7530 68.3490"
/>
<path stroke="#c1c1c1" vector-effect="non-scaling-stroke" d="
  M 342.83 72.71
  L 342.62 77.38
  Q 342.60 77.85 343.04 77.69
  C 348.07 75.80 344.47 69.39 339.02 71.47
  A 1.31 1.28 -85.7 0 0 338.35 72.06
  L 338.12 72.48
  Q 337.82 73.05 337.40 72.56
  Q 335.85 70.69 333.53 69.78
  Q 333.07 69.60 333.47 69.89
  L 337.14 72.58
  A 1.40 1.40 0.0 0 1 337.37 74.63
  L 334.12 78.37
  Q 333.54 79.03 334.30 78.59
  Q 335.66 77.81 336.47 76.55
  A 1.15 1.15 0.0 0 1 338.47 76.68
  Q 338.95 77.68 339.97 77.89
  A 0.52 0.52 0.0 0 0 340.50 77.08
  Q 338.98 74.89 339.67 72.24
  A 1.61 1.60 -36.5 0 1 342.83 72.71"
/>
<path stroke="#c1c1c1" vector-effect="non-scaling-stroke" d="
  M 323.23 77.75
  Q 324.78 80.77 322.60 83.01
  A 0.35 0.35 0.0 0 0 322.92 83.60
  C 326.20 82.92 326.31 78.82 323.77 77.19"
/>
<path stroke="#cbcccc" vector-effect="non-scaling-stroke" d="
  M 323.77 77.19
  C 318.28 75.38 314.93 81.76 320.06 83.70
  A 0.40 0.40 0.0 0 0 320.61 83.31
  L 320.45 78.26
  A 0.96 0.96 0.0 0 1 321.19 77.30
  Q 322.18 77.05 323.23 77.75"
/>
<path stroke="#8d8d8d" vector-effect="non-scaling-stroke" d="
  M 323.77 77.19
  Q 323.14 77.21 323.23 77.75"
/>
<path stroke="#ececec" vector-effect="non-scaling-stroke" d="
  M 327.70 78.43
  Q 326.73 79.57 328.14 80.03
  Q 328.69 80.21 328.51 79.66
  L 328.13 78.52
  Q 327.99 78.09 327.70 78.43"
/>
<path stroke="#b5b5b6" vector-effect="non-scaling-stroke" d="
  M 331.74 81.94
  Q 331.39 82.46 330.78 82.57
  Q 330.24 82.67 330.12 83.20
  Q 329.41 86.36 331.97 87.79
  A 0.45 0.44 88.2 0 0 332.56 87.16
  Q 331.03 84.75 332.34 82.28
  Q 332.60 81.78 332.18 81.39
  L 330.29 79.66
  Q 329.77 79.19 330.02 79.83
  Q 330.39 80.79 331.48 81.17
  Q 332.11 81.39 331.74 81.94"
/>
<path stroke="#c1c1c1" vector-effect="non-scaling-stroke" d="
  M 334.60 81.89
  C 335.80 83.08 334.96 86.32 334.59 87.51
  Q 334.39 88.13 335.01 87.92
  C 338.23 86.86 338.43 81.52 334.73 81.55
  Q 334.25 81.55 334.60 81.89"
/>
</g>
<path fill="#d8d9d9" d="
  M 348.50 21.46
  L 348.25 22.81
  Q 348.15 23.30 348.62 23.46
  C 365.26 29.37 379.19 45.25 383.05 62.36
  C 388.92 88.43 374.96 113.82 350.72 124.09
  C 346.77 125.76 343.58 127.49 339.94 129.22
  Q 329.45 130.96 318.75 128.81
  Q 318.66 128.15 318.82 127.87
  Q 318.96 127.63 318.70 127.53
  C 306.66 123.01 296.66 117.74 288.46 107.49
  Q 279.56 96.39 277.79 82.98
  C 274.69 59.52 284.86 37.56 305.75 26.66
  Q 311.58 23.61 318.80 21.30
  Q 320.32 20.81 320.25 19.60
  Q 334.78 17.25 348.50 21.46
  Z
  M 305.19 28.69
  C 287.82 37.88 278.24 56.47 278.42 75.04
  C 278.63 96.64 291.25 114.04 310.97 122.95
  Q 313.23 123.96 313.54 121.51
  L 314.49 114.04
  Q 328.62 119.74 342.57 115.57
  Q 342.51 119.59 343.90 123.61
  Q 344.08 124.12 344.63 124.06
  C 349.37 123.45 355.32 120.13 358.86 118.03
  C 372.90 108.48 381.83 94.20 382.10 77.26
  C 382.19 71.56 382.51 65.82 380.81 61.07
  A 1.85 1.84 40.4 0 1 380.73 60.11
  C 381.07 58.34 379.81 57.43 379.38 56.26
  Q 371.84 35.72 351.23 26.47
  Q 347.73 25.33 343.80 24.18
  C 337.66 22.39 331.14 22.80 324.82 22.87
  Q 320.75 22.91 318.04 24.14
  A 1.66 1.61 36.2 0 1 317.09 24.27
  C 314.75 23.93 312.76 25.43 311.22 25.91
  Q 308.08 26.88 305.19 28.69
  Z"
/>
<path fill="#6b6a6c" d="
  M 320.25 19.60
  Q 320.32 20.81 318.80 21.30
  Q 311.58 23.61 305.75 26.66
  C 284.86 37.56 274.69 59.52 277.79 82.98
  Q 279.56 96.39 288.46 107.49
  C 296.66 117.74 306.66 123.01 318.70 127.53
  Q 318.96 127.63 318.82 127.87
  Q 318.66 128.15 318.75 128.81
  C 281.39 119.14 261.82 78.09 283.57 44.35
  C 290.94 32.92 305.75 20.90 320.25 19.60
  Z"
/>
<path fill="#0e0e0d" d="
  M 88.8481 49.7289
  A 9.86 9.86 0.0 0 1 79.0572 59.6575
  L 64.1576 59.7615
  A 9.86 9.86 0.0 0 1 54.2290 49.9706
  L 54.0919 30.3311
  A 9.86 9.86 0.0 0 1 63.8828 20.4025
  L 78.7824 20.2985
  A 9.86 9.86 0.0 0 1 88.7110 30.0894
  L 88.8481 49.7289
  Z
  M 78.6152 29.7349
  A 1.17 1.17 0.0 0 0 77.4493 28.5608
  L 65.5494 28.5193
  A 1.17 1.17 0.0 0 0 64.3753 29.6852
  L 64.3048 49.8851
  A 1.17 1.17 0.0 0 0 65.4707 51.0592
  L 77.3706 51.1007
  A 1.17 1.17 0.0 0 0 78.5447 49.9348
  L 78.6152 29.7349
  Z"
/>
<path fill="#0e0e0d" d="
  M 115.76 29.22
  L 115.75 58.38
  Q 115.75 59.50 114.62 59.50
  L 106.75 59.50
  A 1.01 1.01 0.0 0 1 105.74 58.50
  L 105.42 29.45
  A 0.97 0.96 -0.3 0 0 104.45 28.50
  L 94.64 28.50
  Q 94.02 28.50 94.02 27.88
  L 94.06 21.39
  Q 94.06 20.70 94.75 20.66
  C 107.31 19.92 115.51 21.02 125.61 20.28
  A 1.76 1.76 0.0 0 1 127.50 22.04
  L 127.50 27.65
  A 0.89 0.89 0.0 0 1 126.60 28.54
  L 116.47 28.51
  Q 115.76 28.51 115.76 29.22
  Z"
/>
<path fill="#0e0e0d" d="
  M 167.03 49.88
  A 9.91 9.91 0.0 0 1 157.12 59.79
  L 142.38 59.79
  A 9.91 9.91 0.0 0 1 132.47 49.88
  L 132.47 30.14
  A 9.91 9.91 0.0 0 1 142.38 20.23
  L 157.12 20.23
  A 9.91 9.91 0.0 0 1 167.03 30.14
  L 167.03 49.88
  Z
  M 157.0428 29.7180
  A 1.18 1.18 0.0 0 0 155.8690 28.5318
  L 143.7691 28.4685
  A 1.18 1.18 0.0 0 0 142.5830 29.6423
  L 142.4772 49.8420
  A 1.18 1.18 0.0 0 0 143.6510 51.0282
  L 155.7509 51.0915
  A 1.18 1.18 0.0 0 0 156.9370 49.9177
  L 157.0428 29.7180
  Z"
/>
<path fill="#0e0e0d" d="
  M 175.95 59.43
  A 0.98 0.98 0.0 0 1 175.00 58.45
  L 175.00 21.75
  A 1.18 1.17 -0.8 0 1 176.15 20.58
  Q 188.37 20.30 200.50 20.22
  C 205.93 20.19 210.53 24.83 210.51 30.23
  Q 210.49 34.74 210.50 39.20
  Q 210.50 39.78 210.09 40.20
  L 204.88 45.36
  A 1.11 1.10 -41.7 0 0 204.79 46.83
  C 206.56 49.08 212.86 57.05 209.43 59.55
  A 1.43 1.41 -61.5 0 1 208.54 59.82
  L 201.68 59.53
  A 1.03 1.02 74.8 0 1 200.85 59.05
  Q 198.87 55.95 193.97 47.80
  Q 193.68 47.32 192.27 46.27
  A 1.36 1.31 62.6 0 0 191.47 46.00
  L 186.63 46.00
  A 1.45 1.45 0.0 0 0 185.18 47.44
  L 185.11 58.14
  A 1.52 1.51 0.9 0 1 183.55 59.64
  L 175.95 59.43
  Z
  M 200.3638 29.4467
  A 0.93 0.93 0.0 0 0 199.4322 28.5183
  L 186.0722 28.5417
  A 0.93 0.93 0.0 0 0 185.1438 29.4733
  L 185.1562 36.5733
  A 0.93 0.93 0.0 0 0 186.0878 37.5017
  L 199.4478 37.4783
  A 0.93 0.93 0.0 0 0 200.3762 36.5467
  L 200.3638 29.4467
  Z"
/>
<path fill="#0e0e0d" d="
  M 228.53 29.17
  L 228.49 35.10
  A 0.62 0.62 0.0 0 0 229.11 35.73
  L 247.14 35.79
  A 1.28 1.26 -22.1 0 1 248.04 36.16
  L 253.27 41.45
  A 1.59 1.57 22.1 0 1 253.72 42.50
  C 253.82 46.57 254.51 51.55 252.28 54.95
  C 250.07 58.30 247.69 59.81 243.40 59.77
  C 238.38 59.72 227.50 60.93 223.34 58.59
  Q 218.16 55.68 218.12 48.94
  A 1.36 1.36 0.0 0 1 219.49 47.57
  L 224.63 47.60
  Q 225.23 47.61 225.64 48.04
  C 229.87 52.52 236.93 51.00 242.53 51.00
  A 0.97 0.97 0.0 0 0 243.50 50.03
  L 243.50 45.92
  A 1.76 1.76 0.0 0 0 241.63 44.16
  Q 233.36 44.69 225.07 44.23
  A 1.70 1.68 65.0 0 1 224.15 43.89
  C 218.53 39.53 217.51 37.05 218.02 29.84
  C 218.44 23.79 223.12 20.18 228.93 20.23
  C 233.22 20.26 245.18 19.18 248.39 21.33
  C 251.63 23.50 254.93 26.89 253.49 31.21
  Q 253.33 31.71 252.82 31.86
  Q 246.74 33.66 243.11 28.95
  A 1.14 1.13 -18.7 0 0 242.21 28.51
  L 229.20 28.51
  A 0.67 0.67 0.0 0 0 228.53 29.17
  Z"
/>
<path fill="#0e0e0d" d="
  M 36.21 39.04
  A 0.50 0.49 58.0 0 0 35.27 38.82
  Q 32.90 43.68 30.34 48.54
  C 28.69 51.68 24.89 52.26 23.14 49.03
  Q 20.48 44.12 18.49 38.95
  A 0.77 0.77 0.0 0 0 17.00 39.23
  L 17.00 58.84
  A 0.82 0.82 0.0 0 1 16.16 59.66
  L 8.18 59.44
  Q 7.20 59.41 7.20 58.43
  L 7.10 21.54
  A 1.04 1.04 0.0 0 1 8.14 20.50
  L 15.99 20.50
  A 1.94 1.93 75.7 0 1 17.69 21.52
  C 18.52 23.06 26.03 37.75 26.47 37.76
  A 1.06 1.06 0.0 0 0 27.43 37.18
  L 35.31 21.94
  A 2.68 2.67 -76.2 0 1 37.68 20.50
  L 44.76 20.50
  Q 46.28 20.50 46.28 22.01
  L 46.30 58.57
  A 0.93 0.92 -0.3 0 1 45.37 59.50
  L 37.57 59.50
  A 1.26 1.26 0.0 0 1 36.31 58.25
  L 36.21 39.04
  Z"
/>
<path fill="#6b6a6c" d="
  M 348.50 21.46
  Q 372.35 30.50 381.80 52.53
  C 396.22 86.13 374.95 122.43 339.94 129.22
  C 343.58 127.49 346.77 125.76 350.72 124.09
  C 374.96 113.82 388.92 88.43 383.05 62.36
  C 379.19 45.25 365.26 29.37 348.62 23.46
  Q 348.15 23.30 348.25 22.81
  L 348.50 21.46
  Z"
/>
<path fill="#c6c6c7" d="
  M 351.23 26.47
  L 349.86 35.84
  Q 328.32 25.59 308.08 37.69
  Q 305.86 34.15 306.63 30.07
  C 306.86 28.86 306.31 28.58 305.19 28.69
  Q 308.08 26.88 311.22 25.91
  C 312.76 25.43 314.75 23.93 317.09 24.27
  A 1.66 1.61 36.2 0 0 318.04 24.14
  Q 320.75 22.91 324.82 22.87
  C 331.14 22.80 337.66 22.39 343.80 24.18
  Q 347.73 25.33 351.23 26.47
  Z"
/>
<path fill="#828282" d="
  M 351.23 26.47
  Q 371.84 35.72 379.38 56.26
  C 379.81 57.43 381.07 58.34 380.73 60.11
  A 1.85 1.84 40.4 0 0 380.81 61.07
  C 382.51 65.82 382.19 71.56 382.10 77.26
  C 381.83 94.20 372.90 108.48 358.86 118.03
  C 357.62 115.05 358.61 111.15 356.22 108.85
  C 381.91 89.22 378.44 50.66 349.86 35.84
  L 351.23 26.47
  Z"
/>
<path fill="#828282" d="
  M 305.19 28.69
  C 306.31 28.58 306.86 28.86 306.63 30.07
  Q 305.86 34.15 308.08 37.69
  C 277.39 56.26 282.28 100.86 314.49 114.04
  L 313.54 121.51
  Q 313.23 123.96 310.97 122.95
  C 291.25 114.04 278.63 96.64 278.42 75.04
  C 278.24 56.47 287.82 37.88 305.19 28.69
  Z"
/>
<path fill="#ffffff" d="
  M 349.86 35.84
  C 378.44 50.66 381.91 89.22 356.22 108.85
  Q 350.02 113.07 342.57 115.57
  Q 328.62 119.74 314.49 114.04
  C 282.28 100.86 277.39 56.26 308.08 37.69
  Q 328.32 25.59 349.86 35.84
  Z
  M 301.95 46.66
  C 286.90 61.52 287.84 84.25 300.17 100.44
  C 310.01 110.73 323.61 116.08 337.98 113.23
  C 362.13 108.65 377.02 83.59 367.92 60.31
  C 363.00 47.70 353.01 38.90 339.61 35.58
  C 325.92 32.25 311.68 36.69 301.95 46.66
  Z"
/>
<path fill="#c6c6c7" d="
  M 339.61 35.58
  Q 338.96 35.83 338.94 36.05
  L 337.59 36.01
  Q 337.10 35.99 336.95 36.46
  C 334.74 43.36 332.29 61.03 321.57 59.66
  C 316.37 59.00 307.81 51.51 303.48 47.70
  Q 303.21 47.47 302.85 47.50
  L 302.56 47.53
  Q 302.63 46.70 301.95 46.66
  C 311.68 36.69 325.92 32.25 339.61 35.58
  Z"
/>
<path fill="#979898" d="
  M 339.61 35.58
  C 353.01 38.90 363.00 47.70 367.92 60.31
  C 377.02 83.59 362.13 108.65 337.98 113.23
  L 337.80 112.77
  Q 342.82 111.54 347.23 109.35
  A 1.05 1.05 0.0 0 0 347.70 107.95
  C 345.20 102.88 340.73 91.92 341.93 87.20
  C 344.58 76.71 360.05 79.36 368.01 79.80
  A 1.03 1.02 1.3 0 0 369.10 78.76
  L 368.96 69.16
  A 0.61 0.60 -2.6 0 0 368.30 68.56
  Q 361.70 69.10 355.04 69.04
  C 335.03 68.84 342.58 51.25 347.47 41.01
  A 1.40 1.40 0.0 0 0 346.71 39.11
  L 338.94 36.05
  Q 338.96 35.83 339.61 35.58
  Z"
/>
<path fill="#ffffff" d="
  M 338.94 36.05
  L 346.71 39.11
  A 1.40 1.40 0.0 0 1 347.47 41.01
  C 342.58 51.25 335.03 68.84 355.04 69.04
  Q 361.70 69.10 368.30 68.56
  A 0.61 0.60 -2.6 0 1 368.96 69.16
  L 369.10 78.76
  A 1.03 1.02 1.3 0 1 368.01 79.80
  C 360.05 79.36 344.58 76.71 341.93 87.20
  C 340.73 91.92 345.20 102.88 347.70 107.95
  A 1.05 1.05 0.0 0 1 347.23 109.35
  Q 342.82 111.54 337.80 112.77
  Q 337.73 112.54 337.41 112.48
  Q 337.02 112.40 336.93 112.02
  C 334.98 104.17 331.45 84.01 318.26 90.07
  C 312.91 92.52 307.92 96.94 303.51 100.83
  Q 303.11 101.18 302.64 100.91
  Q 301.80 100.43 301.05 99.43
  L 296.84 93.27
  A 1.25 1.25 0.0 0 1 297.25 91.48
  C 303.17 88.08 314.65 81.71 314.40 73.85
  C 314.18 66.63 302.55 59.92 296.98 56.91
  A 0.97 0.97 0.0 0 1 296.57 55.61
  Q 298.91 51.05 302.56 47.53
  L 302.85 47.50
  Q 303.21 47.47 303.48 47.70
  C 307.81 51.51 316.37 59.00 321.57 59.66
  C 332.29 61.03 334.74 43.36 336.95 36.46
  Q 337.10 35.99 337.59 36.01
  L 338.94 36.05
  Z
  M 333.25 67.19
  Q 333.72 67.35 333.97 67.15
  C 336.97 67.92 339.72 64.50 337.87 62.41
  C 334.11 58.17 327.05 62.76 331.46 66.81
  Q 332.34 67.62 333.25 67.19
  Z
  M 320.68 64.70
  C 317.60 64.73 317.12 70.16 320.63 71.08
  Q 321.65 72.17 323.53 70.88
  C 326.69 69.99 326.64 64.65 322.59 64.56
  Q 322.13 64.14 320.68 64.70
  Z
  M 330.7530 68.3490
  A 1.78 0.27 -11.7 0 0 328.9552 68.4456
  A 1.78 0.27 -11.7 0 0 327.2670 69.0710
  A 1.78 0.27 -11.7 0 0 329.0648 68.9744
  A 1.78 0.27 -11.7 0 0 330.7530 68.3490
  Z
  M 342.83 72.71
  L 342.62 77.38
  Q 342.60 77.85 343.04 77.69
  C 348.07 75.80 344.47 69.39 339.02 71.47
  A 1.31 1.28 -85.7 0 0 338.35 72.06
  L 338.12 72.48
  Q 337.82 73.05 337.40 72.56
  Q 335.85 70.69 333.53 69.78
  Q 333.07 69.60 333.47 69.89
  L 337.14 72.58
  A 1.40 1.40 0.0 0 1 337.37 74.63
  L 334.12 78.37
  Q 333.54 79.03 334.30 78.59
  Q 335.66 77.81 336.47 76.55
  A 1.15 1.15 0.0 0 1 338.47 76.68
  Q 338.95 77.68 339.97 77.89
  A 0.52 0.52 0.0 0 0 340.50 77.08
  Q 338.98 74.89 339.67 72.24
  A 1.61 1.60 -36.5 0 1 342.83 72.71
  Z
  M 323.23 77.75
  Q 324.78 80.77 322.60 83.01
  A 0.35 0.35 0.0 0 0 322.92 83.60
  C 326.20 82.92 326.31 78.82 323.77 77.19
  C 318.28 75.38 314.93 81.76 320.06 83.70
  A 0.40 0.40 0.0 0 0 320.61 83.31
  L 320.45 78.26
  A 0.96 0.96 0.0 0 1 321.19 77.30
  Q 322.18 77.05 323.23 77.75
  Z
  M 327.70 78.43
  Q 326.73 79.57 328.14 80.03
  Q 328.69 80.21 328.51 79.66
  L 328.13 78.52
  Q 327.99 78.09 327.70 78.43
  Z
  M 331.74 81.94
  Q 331.39 82.46 330.78 82.57
  Q 330.24 82.67 330.12 83.20
  Q 329.41 86.36 331.97 87.79
  A 0.45 0.44 88.2 0 0 332.56 87.16
  Q 331.03 84.75 332.34 82.28
  Q 332.60 81.78 332.18 81.39
  L 330.29 79.66
  Q 329.77 79.19 330.02 79.83
  Q 330.39 80.79 331.48 81.17
  Q 332.11 81.39 331.74 81.94
  Z
  M 334.60 81.89
  C 335.80 83.08 334.96 86.32 334.59 87.51
  Q 334.39 88.13 335.01 87.92
  C 338.23 86.86 338.43 81.52 334.73 81.55
  Q 334.25 81.55 334.60 81.89
  Z"
/>
<path fill="#828282" d="
  M 301.95 46.66
  Q 302.63 46.70 302.56 47.53
  Q 298.91 51.05 296.57 55.61
  A 0.97 0.97 0.0 0 0 296.98 56.91
  C 302.55 59.92 314.18 66.63 314.40 73.85
  C 314.65 81.71 303.17 88.08 297.25 91.48
  A 1.25 1.25 0.0 0 0 296.84 93.27
  L 301.05 99.43
  Q 300.80 100.17 300.17 100.44
  C 287.84 84.25 286.90 61.52 301.95 46.66
  Z"
/>
<path fill="#979898" d="
  M 333.97 67.15
  Q 334.15 66.53 335.08 66.25
  Q 335.59 66.10 335.60 65.58
  L 335.65 62.72
  A 1.60 1.60 0.0 0 0 332.63 61.96
  Q 331.28 64.59 333.25 67.19
  Q 332.34 67.62 331.46 66.81
  C 327.05 62.76 334.11 58.17 337.87 62.41
  C 339.72 64.50 336.97 67.92 333.97 67.15
  Z"
/>
<path fill="#d8d9d9" d="
  M 333.97 67.15
  Q 333.72 67.35 333.25 67.19
  Q 331.28 64.59 332.63 61.96
  A 1.60 1.60 0.0 0 1 335.65 62.72
  L 335.60 65.58
  Q 335.59 66.10 335.08 66.25
  Q 334.15 66.53 333.97 67.15
  Z"
/>
<path fill="#d8d9d9" d="
  M 322.59 64.56
  Q 324.36 66.03 323.53 70.88
  Q 321.65 72.17 320.63 71.08
  Q 319.79 67.64 320.68 64.70
  Q 322.13 64.14 322.59 64.56
  Z"
/>
<path fill="#828282" d="
  M 320.68 64.70
  Q 319.79 67.64 320.63 71.08
  C 317.12 70.16 317.60 64.73 320.68 64.70
  Z"
/>
<path fill="#828282" d="
  M 322.59 64.56
  C 326.64 64.65 326.69 69.99 323.53 70.88
  Q 324.36 66.03 322.59 64.56
  Z"
/>
<ellipse fill="#c6c6c7" cx="0.00" cy="0.00" transform="translate(329.01,68.71) rotate(-11.7)" rx="1.78" ry="0.27"/>
<path fill="#0b1b4a" d="
  M 44.40 105.92
  C 40.02 105.77 17.25 106.68 15.14 104.89
  Q 10.82 101.22 7.39 96.76
  A 1.87 1.84 -64.3 0 1 7.00 95.62
  L 7.00 79.12
  A 1.27 1.22 -23.2 0 1 7.37 78.24
  C 10.37 75.27 14.40 69.64 18.81 69.57
  Q 34.65 69.32 50.49 69.73
  A 1.80 1.74 -25.7 0 1 51.43 70.04
  C 56.89 73.76 62.87 79.20 60.18 86.66
  A 0.80 0.79 -81.5 0 1 59.48 87.18
  Q 55.06 87.41 50.76 87.24
  C 48.45 87.15 46.37 84.07 44.53 82.76
  A 1.40 1.37 -26.6 0 0 43.72 82.50
  L 23.28 82.50
  A 0.74 0.73 0.4 0 0 22.54 83.22
  L 22.41 92.07
  A 0.67 0.66 -89.6 0 0 23.07 92.75
  L 50.51 92.75
  A 1.61 1.60 64.1 0 1 51.51 93.10
  Q 56.41 96.98 60.36 101.83
  A 1.72 1.68 -65.4 0 1 60.75 102.92
  L 60.75 118.69
  A 1.71 1.67 -27.4 0 1 60.42 119.69
  Q 56.71 124.66 51.75 128.37
  Q 51.24 128.75 50.60 128.75
  L 16.40 128.75
  Q 15.87 128.75 15.49 128.37
  L 7.44 120.31
  A 1.50 1.50 0.0 0 1 7.00 119.25
  L 7.00 112.03
  Q 7.00 111.42 7.61 111.35
  C 13.93 110.65 18.29 109.71 22.60 115.33
  Q 22.92 115.75 23.46 115.75
  L 44.26 115.75
  A 0.75 0.75 0.0 0 0 45.01 114.99
  L 44.98 106.52
  Q 44.97 105.94 44.40 105.92
  Z"
/>
<path fill="#0b1b4a" d="
  M 124.68 70.63
  L 125.04 127.89
  A 1.10 1.10 0.0 0 1 123.94 129.00
  L 109.99 129.00
  A 1.10 1.10 0.0 0 1 108.89 127.87
  L 109.38 107.03
  A 1.10 1.10 0.0 0 0 108.30 105.91
  L 89.54 105.68
  A 1.10 1.10 0.0 0 0 88.43 106.80
  L 88.79 127.88
  A 1.10 1.10 0.0 0 1 87.69 129.00
  L 73.25 129.00
  A 1.10 1.10 0.0 0 1 72.15 127.89
  L 72.66 70.68
  A 1.10 1.10 0.0 0 1 73.75 69.59
  L 87.13 69.45
  A 1.10 1.10 0.0 0 1 88.24 70.55
  L 88.26 91.65
  A 1.10 1.10 0.0 0 0 89.36 92.75
  L 108.65 92.75
  A 1.10 1.10 0.0 0 0 109.75 91.65
  L 109.75 70.58
  A 1.10 1.10 0.0 0 1 110.85 69.48
  L 123.58 69.54
  A 1.10 1.10 0.0 0 1 124.68 70.63
  Z"
/>
<path fill="#0b1b4a" d="
  M 185.52 74.35
  C 188.17 76.94 189.46 78.63 189.50 82.65
  Q 189.66 100.11 189.79 117.49
  C 189.83 121.88 184.36 125.64 181.48 128.64
  A 1.19 1.18 -67.8 0 1 180.63 129.00
  L 146.66 129.00
  Q 146.13 129.00 145.75 128.62
  L 137.09 119.97
  A 1.21 1.20 -67.2 0 1 136.75 119.13
  Q 136.75 100.80 136.78 82.50
  C 136.78 80.09 136.84 78.52 138.66 76.69
  Q 141.90 73.41 145.23 70.27
  Q 145.60 69.91 146.11 69.87
  C 156.17 69.13 166.43 69.47 176.50 69.55
  C 180.64 69.58 182.49 71.39 185.52 74.35
  Z
  M 173.60 83.09
  A 0.54 0.54 0.0 0 0 173.06 82.55
  L 153.22 82.55
  A 0.54 0.54 0.0 0 0 152.68 83.09
  L 152.68 114.73
  A 0.54 0.54 0.0 0 0 153.22 115.27
  L 173.06 115.27
  A 0.54 0.54 0.0 0 0 173.60 114.73
  L 173.60 83.09
  Z"
/>
<path fill="#0b1b4a" d="
  M 240.99 69.53
  C 245.73 69.55 253.49 75.96 253.73 81.40
  Q 254.19 92.27 253.59 103.17
  A 1.34 1.28 69.4 0 1 253.24 103.99
  L 245.40 112.30
  A 1.26 1.25 21.6 0 1 244.49 112.69
  L 217.69 112.87
  Q 217.00 112.88 217.00 113.56
  L 217.00 128.00
  A 1.00 1.00 0.0 0 1 216.00 129.00
  L 202.09 129.00
  A 1.64 1.64 0.0 0 1 200.45 127.34
  L 201.14 70.11
  Q 201.14 69.55 201.70 69.55
  Q 221.37 69.42 240.99 69.53
  Z
  M 238.1829 83.6087
  A 0.84 0.84 0.0 0 0 237.3444 82.7672
  L 217.6244 82.7328
  A 0.84 0.84 0.0 0 0 216.7829 83.5713
  L 216.7571 98.3913
  A 0.84 0.84 0.0 0 0 217.5956 99.2328
  L 237.3156 99.2672
  A 0.84 0.84 0.0 0 0 238.1571 98.4287
  L 238.1829 83.6087
  Z"
/>
<path fill="#828282" d="
  M 342.83 72.71
  A 1.61 1.60 -36.5 0 0 339.67 72.24
  Q 338.98 74.89 340.50 77.08
  A 0.52 0.52 0.0 0 1 339.97 77.89
  Q 338.95 77.68 338.47 76.68
  A 1.15 1.15 0.0 0 0 336.47 76.55
  Q 335.66 77.81 334.30 78.59
  Q 333.54 79.03 334.12 78.37
  L 337.37 74.63
  A 1.40 1.40 0.0 0 0 337.14 72.58
  L 333.47 69.89
  Q 333.07 69.60 333.53 69.78
  Q 335.85 70.69 337.40 72.56
  Q 337.82 73.05 338.12 72.48
  L 338.35 72.06
  A 1.31 1.28 -85.7 0 1 339.02 71.47
  C 344.47 69.39 348.07 75.80 343.04 77.69
  Q 342.60 77.85 342.62 77.38
  L 342.83 72.71
  Z"
/>
<path fill="#979898" d="
  M 323.77 77.19
  Q 323.14 77.21 323.23 77.75
  Q 322.18 77.05 321.19 77.30
  A 0.96 0.96 0.0 0 0 320.45 78.26
  L 320.61 83.31
  A 0.40 0.40 0.0 0 1 320.06 83.70
  C 314.93 81.76 318.28 75.38 323.77 77.19
  Z"
/>
<path fill="#828282" d="
  M 323.77 77.19
  C 326.31 78.82 326.20 82.92 322.92 83.60
  A 0.35 0.35 0.0 0 1 322.60 83.01
  Q 324.78 80.77 323.23 77.75
  Q 323.14 77.21 323.77 77.19
  Z"
/>
<path fill="#d8d9d9" d="
  M 327.70 78.43
  Q 327.99 78.09 328.13 78.52
  L 328.51 79.66
  Q 328.69 80.21 328.14 80.03
  Q 326.73 79.57 327.70 78.43
  Z"
/>
<path fill="#6b6a6c" d="
  M 331.48 81.17
  Q 330.39 80.79 330.02 79.83
  Q 329.77 79.19 330.29 79.66
  L 332.18 81.39
  Q 332.60 81.78 332.34 82.28
  Q 331.03 84.75 332.56 87.16
  A 0.45 0.44 88.2 0 1 331.97 87.79
  Q 329.41 86.36 330.12 83.20
  Q 330.24 82.67 330.78 82.57
  Q 331.39 82.46 331.74 81.94
  Q 332.11 81.39 331.48 81.17
  Z"
/>
<path fill="#828282" d="
  M 334.59 87.51
  C 334.96 86.32 335.80 83.08 334.60 81.89
  Q 334.25 81.55 334.73 81.55
  C 338.43 81.52 338.23 86.86 335.01 87.92
  Q 334.39 88.13 334.59 87.51
  Z"
/>
<path fill="#c6c6c7" d="
  M 337.80 112.77
  L 337.98 113.23
  C 323.61 116.08 310.01 110.73 300.17 100.44
  Q 300.80 100.17 301.05 99.43
  Q 301.80 100.43 302.64 100.91
  Q 303.11 101.18 303.51 100.83
  C 307.92 96.94 312.91 92.52 318.26 90.07
  C 331.45 84.01 334.98 104.17 336.93 112.02
  Q 337.02 112.40 337.41 112.48
  Q 337.73 112.54 337.80 112.77
  Z"
/>
<path fill="#c6c6c7" d="
  M 356.22 108.85
  C 358.61 111.15 357.62 115.05 358.86 118.03
  C 355.32 120.13 349.37 123.45 344.63 124.06
  Q 344.08 124.12 343.90 123.61
  Q 342.51 119.59 342.57 115.57
  Q 350.02 113.07 356.22 108.85
  Z"
/>
</svg>
