<?xml version="1.0" encoding="UTF-8" standalone="no"?>
<!DOCTYPE svg PUBLIC "-//W3C//DTD SVG 1.1//EN" "http://www.w3.org/Graphics/SVG/1.1/DTD/svg11.dtd">
<svg xmlns="http://www.w3.org/2000/svg" version="1.1" viewBox="0.00 0.00 398.00 150.00">
<g stroke-width="2.00" fill="none" stroke-linecap="butt">
<path stroke="#bbbbbc" vector-effect="non-scaling-stroke" d="
  M 347.76 21.19
  Q 347.89 22.59 346.12 23.41
  Q 345.47 23.71 346.14 23.97
  C 359.91 29.31 369.56 37.77 377.41 50.29"
/>
<path stroke="#a4a3a5" vector-effect="non-scaling-stroke" d="
  M 377.41 50.29
  Q 380.89 56.38 382.23 62.99
  C 382.71 65.33 383.75 67.08 383.75 69.48
  C 383.75 75.08 384.52 82.19 383.03 87.55
  C 381.83 91.84 380.91 96.40 379.10 100.12
  Q 370.33 118.11 352.70 126.72
  Q 350.95 127.58 351.00 129.47"
/>
<path stroke="#a4a3a5" vector-effect="non-scaling-stroke" d="
  M 312.94 131.65
  L 312.42 129.81
  Q 312.28 129.33 311.80 129.16
  C 288.10 121.00 275.92 102.28 273.68 78.40
  C 273.41 75.49 274.35 72.83 274.53 69.81
  Q 274.78 65.44 275.33 63.41
  C 280.75 43.36 294.79 29.12 314.93 23.04
  Q 315.50 22.87 315.50 22.28
  L 315.50 21.02
  Q 315.50 20.49 316.02 20.36
  L 318.48 19.74"
/>
<path stroke="#7f7f80" vector-effect="non-scaling-stroke" d="
  M 386.32 69.19
  C 384.23 68.87 384.73 64.86 384.21 63.15
  Q 382.12 56.36 379.60 50.92
  Q 378.88 49.35 377.41 50.29"
/>
<path stroke="#cfeeff" vector-effect="non-scaling-stroke" d="
  M 125.99 122.02
  Q 125.46 121.75 125.47 120.73
  Q 125.48 119.97 125.02 120.57
  Q 123.94 121.96 122.76 121.74
  Q 115.63 120.46 108.17 120.13"
/>
<path stroke="#e2f5ff" vector-effect="non-scaling-stroke" d="
  M 60.71 106.53
  L 60.40 104.77
  Q 60.32 104.33 59.87 104.35
  C 58.16 104.45 56.94 105.23 55.29 105.21
  C 52.50 105.17 47.32 105.24 45.62 106.90
  Q 45.31 107.20 45.27 106.77
  Q 45.21 105.98 44.80 106.52"
/>
<path stroke="#d4f0ff" vector-effect="non-scaling-stroke" d="
  M 189.71 107.52
  L 189.43 105.71
  A 0.42 0.42 0.0 0 0 188.76 105.44
  C 186.05 107.50 179.15 108.35 176.08 109.01
  C 174.23 109.41 173.18 108.84 173.66 106.67
  Q 173.68 106.57 173.67 106.67
  L 173.30 111.02"
/>
<path stroke="#d4f0ff" vector-effect="non-scaling-stroke" d="
  M 152.75 111.53
  L 152.38 109.28
  Q 152.32 108.91 152.30 109.28
  L 152.14 111.91
  A 0.67 0.66 85.4 0 1 151.63 112.52
  C 146.48 113.74 142.46 112.54 137.41 111.98
  Q 137.13 111.95 137.07 112.23
  L 136.77 113.77"
/>
<path stroke="#cfeeff" vector-effect="non-scaling-stroke" d="
  M 253.97 95.68
  L 239.20 95.33
  Q 238.58 95.31 238.55 94.70
  Q 238.50 93.62 238.00 92.93"
/>
<path stroke="#cfeeff" vector-effect="non-scaling-stroke" d="
  M 218.51 98.77
  Q 217.28 100.20 216.21 100.53
  Q 209.24 102.63 202.50 105.44
  Q 202.01 105.64 201.55 105.38
  Q 201.07 105.11 200.97 106.09
  A 0.07 0.07 0.0 0 1 200.84 106.09
  L 200.27 102.23"
/>
<path stroke="#efeff0" vector-effect="non-scaling-stroke" d="
  M 315.24 118.74
  Q 330.78 124.11 346.58 117.10"
/>
<path stroke="#b1b1b2" vector-effect="non-scaling-stroke" d="
  M 346.58 117.10
  Q 346.95 121.51 345.84 125.91
  Q 345.66 126.62 346.38 126.51
  C 347.77 126.30 348.98 126.39 350.28 125.78
  Q 374.55 114.36 381.13 88.75
  C 383.01 81.40 382.62 68.66 380.50 61.58
  Q 374.31 40.93 355.09 29.45
  A 0.65 0.65 0.0 0 0 354.11 30.04
  Q 354.35 34.78 353.23 39.55"
/>
<path stroke="#efeff0" vector-effect="non-scaling-stroke" d="
  M 353.23 39.55
  Q 330.76 25.97 307.55 37.89"
/>
<path stroke="#b1b1b2" vector-effect="non-scaling-stroke" d="
  M 307.55 37.89
  Q 306.62 35.35 306.72 32.63
  A 2.35 2.26 60.5 0 1 306.96 31.69
  Q 307.52 30.62 306.75 28.94
  A 1.23 1.23 0.0 0 0 305.05 28.37
  C 289.31 36.75 277.91 51.56 275.80 69.42
  C 272.75 95.29 286.36 117.78 310.50 127.11
  C 312.30 127.81 313.70 127.84 315.62 127.75
  Q 316.08 127.73 316.19 127.28
  C 317.08 123.73 315.07 122.14 315.24 118.74"
/>
<path stroke="#c1c1c2" vector-effect="non-scaling-stroke" d="
  M 307.55 37.89
  C 273.37 57.48 278.76 105.94 315.24 118.74"
/>
<path stroke="#c1c1c2" vector-effect="non-scaling-stroke" d="
  M 346.58 117.10
  C 379.21 102.30 382.34 59.93 353.23 39.55"
/>
<path stroke="#c1c1c2" vector-effect="non-scaling-stroke" d="
  M 299.46 48.17
  C 283.41 63.33 284.41 94.08 302.20 107.61"
/>
<path stroke="#efeff0" vector-effect="non-scaling-stroke" d="
  M 302.20 107.61
  C 312.11 116.24 326.26 119.53 339.14 116.13"
/>
<path stroke="#cbcbcb" vector-effect="non-scaling-stroke" d="
  M 339.14 116.13
  C 356.38 111.75 367.22 98.55 369.78 80.99"
/>
<path stroke="#c1c1c2" vector-effect="non-scaling-stroke" d="
  M 369.78 80.99
  C 372.25 66.94 363.95 52.08 353.18 43.47"
/>
<path stroke="#dedede" vector-effect="non-scaling-stroke" d="
  M 353.18 43.47
  Q 346.95 39.52 339.02 36.76"
/>
<path stroke="#efeff0" vector-effect="non-scaling-stroke" d="
  M 339.02 36.76
  C 324.73 33.31 309.78 37.80 299.46 48.17"
/>
<path stroke="#cececf" vector-effect="non-scaling-stroke" d="
  M 339.02 36.76
  Q 338.74 37.21 338.67 37.83"
/>
<path stroke="#efeff0" vector-effect="non-scaling-stroke" d="
  M 338.67 37.83
  Q 335.46 36.55 334.69 40.17
  C 333.07 47.74 330.34 59.94 321.28 61.40
  C 315.97 62.25 305.01 52.86 301.32 49.26
  A 0.72 0.70 57.6 0 0 300.61 49.09
  L 300.21 49.21"
/>
<path stroke="#b1b1b2" vector-effect="non-scaling-stroke" d="
  M 300.21 49.21
  Q 299.97 48.10 299.46 48.17"
/>
<path stroke="#a0a0a1" vector-effect="non-scaling-stroke" d="
  M 305.07 65.78
  Q 303.63 76.43 304.48 87.65"
/>
<path stroke="#b1b1b2" vector-effect="non-scaling-stroke" d="
  M 300.28 104.71
  L 302.20 107.61"
/>
<path stroke="#a0a0a1" vector-effect="non-scaling-stroke" d="
  M 353.18 43.47
  Q 353.02 56.06 352.72 68.00
  Q 352.69 69.31 350.72 71.05"
/>
<path stroke="#dedede" vector-effect="non-scaling-stroke" d="
  M 350.72 71.05
  C 333.80 70.39 342.87 49.29 346.69 41.76
  A 0.62 0.62 0.0 0 0 346.47 40.95
  Q 342.86 38.65 338.67 37.83"
/>
<path stroke="#c1c1c2" vector-effect="non-scaling-stroke" d="
  M 350.72 71.05
  Q 359.26 71.68 367.13 70.73
  Q 368.74 70.54 368.73 72.16
  L 368.71 80.74"
/>
<path stroke="#cbcbcb" vector-effect="non-scaling-stroke" d="
  M 368.71 80.74
  Q 368.42 81.15 368.48 81.59
  Q 368.62 82.60 367.60 82.50
  Q 358.74 81.66 350.94 82.19
  C 333.56 83.37 343.02 103.64 346.66 111.58
  A 0.63 0.63 0.0 0 1 346.44 112.37
  Q 342.90 114.76 338.73 115.49"
/>
<path stroke="#efeff0" vector-effect="non-scaling-stroke" d="
  M 338.73 115.49
  Q 337.22 115.93 335.81 115.31
  Q 335.36 115.11 335.20 114.65
  C 332.61 107.26 331.14 92.37 321.28 91.78
  C 315.01 91.41 304.66 100.45 300.28 104.71"
/>
<path stroke="#c1c1c2" vector-effect="non-scaling-stroke" d="
  M 300.28 104.71
  C 298.26 102.46 294.34 97.98 294.27 95.07
  Q 294.26 94.55 294.69 94.26
  L 304.48 87.65"
/>
<path stroke="#dedede" vector-effect="non-scaling-stroke" d="
  M 304.48 87.65
  C 314.76 80.60 314.82 73.44 305.07 65.78"
/>
<path stroke="#c1c1c2" vector-effect="non-scaling-stroke" d="
  M 305.07 65.78
  L 294.48 58.67
  A 1.06 1.06 0.0 0 1 294.12 57.32
  Q 296.37 52.77 300.21 49.21"
/>
<path stroke="#8d8d8e" vector-effect="non-scaling-stroke" d="
  M 369.78 80.99
  Q 368.78 81.12 368.71 80.74"
/>
<path stroke="#bbbbbc" vector-effect="non-scaling-stroke" d="
  M 339.14 116.13
  Q 338.29 116.03 338.73 115.49"
/>
<path stroke="#efeff0" vector-effect="non-scaling-stroke" d="
  M 331.87 69.22
  L 333.40 69.27"
/>
<path stroke="#dedede" vector-effect="non-scaling-stroke" d="
  M 333.40 69.27
  C 336.92 71.33 339.08 60.71 331.51 62.68
  C 326.42 63.99 328.80 70.34 331.87 69.22"
/>
<path stroke="#cececf" vector-effect="non-scaling-stroke" d="
  M 333.40 69.27
  L 334.57 67.71
  Q 334.86 67.31 334.55 66.94
  Q 333.69 65.91 334.09 64.53
  Q 334.22 64.07 333.85 63.76
  C 331.08 61.47 329.06 66.77 331.87 69.22"
/>
<path stroke="#cbcbcb" vector-effect="non-scaling-stroke" d="
  M 318.46 66.62
  Q 313.93 70.43 318.68 73.49"
/>
<path stroke="#fafdff" vector-effect="non-scaling-stroke" d="
  M 318.68 73.49
  Q 319.96 74.09 321.48 73.28"
/>
<path stroke="#dedede" vector-effect="non-scaling-stroke" d="
  M 321.48 73.28
  C 324.53 72.61 325.03 67.09 321.57 66.78"
/>
<path stroke="#fafdff" vector-effect="non-scaling-stroke" d="
  M 321.57 66.78
  Q 320.40 66.22 318.46 66.62"
/>
<path stroke="#d9dcde" vector-effect="non-scaling-stroke" d="
  M 321.57 66.78
  Q 322.05 69.82 321.48 73.28"
/>
<path stroke="#c5c9cb" vector-effect="non-scaling-stroke" d="
  M 318.68 73.49
  Q 317.96 70.12 318.46 66.62"
/>
<path stroke="#efeff0" vector-effect="non-scaling-stroke" d="
  M 326.20 70.90
  Q 326.72 72.08 328.99 70.35
  Q 329.16 70.22 328.94 70.23
  Q 327.88 70.30 326.78 70.13
  A 0.55 0.55 0.0 0 0 326.20 70.90"
/>
<path stroke="#efeff0" vector-effect="non-scaling-stroke" d="
  M 334.7838 73.5414
  A 1.69 0.36 26.4 0 0 333.4301 72.4675
  A 1.69 0.36 26.4 0 0 331.7562 72.0386
  A 1.69 0.36 26.4 0 0 333.1099 73.1125
  A 1.69 0.36 26.4 0 0 334.7838 73.5414"
/>
<path stroke="#dedede" vector-effect="non-scaling-stroke" d="
  M 339.29 73.39
  Q 336.34 73.94 335.94 76.61
  Q 335.85 77.18 335.48 77.62
  L 333.02 80.53
  A 0.19 0.19 0.0 0 0 333.30 80.79
  L 335.61 78.59
  Q 336.06 78.16 336.44 78.66
  Q 337.48 80.02 338.80 80.37"
/>
<path stroke="#efeff0" vector-effect="non-scaling-stroke" d="
  M 338.80 80.37
  Q 342.74 80.61 344.06 77.43
  A 1.28 1.23 -45.5 0 0 344.07 76.50
  Q 342.53 72.65 339.29 73.39"
/>
<path stroke="#cececf" vector-effect="non-scaling-stroke" d="
  M 338.80 80.37
  Q 338.92 78.75 337.87 77.50
  Q 337.53 77.08 337.76 76.60
  L 339.29 73.39"
/>
<path stroke="#dedede" vector-effect="non-scaling-stroke" d="
  M 318.22 79.56
  C 315.08 80.60 314.82 84.44 317.87 86.11
  Q 318.91 86.68 318.67 85.52
  Q 318.08 82.72 318.67 79.96
  Q 318.80 79.37 318.22 79.56"
/>
<path stroke="#dedede" vector-effect="non-scaling-stroke" d="
  M 321.25 84.82
  L 320.50 85.69
  Q 320.11 86.14 320.70 86.09
  C 325.62 85.68 323.97 78.35 319.77 79.58
  Q 319.55 79.65 319.78 79.69
  L 321.13 79.96
  Q 321.56 80.05 321.64 80.48
  Q 321.96 82.25 321.66 83.96
  Q 321.58 84.44 321.25 84.82"
/>
<path stroke="#fafdff" vector-effect="non-scaling-stroke" d="
  M 330.99 90.65
  L 333.29 90.49"
/>
<path stroke="#dedede" vector-effect="non-scaling-stroke" d="
  M 333.29 90.49
  C 336.14 91.10 337.30 85.53 333.46 83.89"
/>
<path stroke="#fafdff" vector-effect="non-scaling-stroke" d="
  M 333.46 83.89
  Q 332.09 83.50 330.59 83.73"
/>
<path stroke="#dedede" vector-effect="non-scaling-stroke" d="
  M 330.59 83.73
  Q 328.92 81.89 326.21 81.56
  Q 325.69 81.50 325.79 82.02
  C 325.92 82.68 328.95 82.59 329.98 83.56
  Q 330.34 83.89 329.98 84.22
  Q 325.80 88.06 330.99 90.65"
/>
<path stroke="#d9dcde" vector-effect="non-scaling-stroke" d="
  M 330.59 83.73
  C 330.96 84.93 330.22 85.75 330.20 86.76
  Q 330.15 88.62 330.99 90.65"
/>
<path stroke="#d9dcde" vector-effect="non-scaling-stroke" d="
  M 333.46 83.89
  Q 333.95 87.18 333.29 90.49"
/>
</g>
<path fill="#dfdfe0" d="
  M 347.76 21.19
  Q 347.89 22.59 346.12 23.41
  Q 345.47 23.71 346.14 23.97
  C 359.91 29.31 369.56 37.77 377.41 50.29
  Q 380.89 56.38 382.23 62.99
  C 382.71 65.33 383.75 67.08 383.75 69.48
  C 383.75 75.08 384.52 82.19 383.03 87.55
  C 381.83 91.84 380.91 96.40 379.10 100.12
  Q 370.33 118.11 352.70 126.72
  Q 350.95 127.58 351.00 129.47
  Q 332.40 137.04 312.94 131.65
  L 312.42 129.81
  Q 312.28 129.33 311.80 129.16
  C 288.10 121.00 275.92 102.28 273.68 78.40
  C 273.41 75.49 274.35 72.83 274.53 69.81
  Q 274.78 65.44 275.33 63.41
  C 280.75 43.36 294.79 29.12 314.93 23.04
  Q 315.50 22.87 315.50 22.28
  L 315.50 21.02
  Q 315.50 20.49 316.02 20.36
  L 318.48 19.74
  Q 333.43 16.99 347.76 21.19
  Z
  M 315.24 118.74
  Q 330.78 124.11 346.58 117.10
  Q 346.95 121.51 345.84 125.91
  Q 345.66 126.62 346.38 126.51
  C 347.77 126.30 348.98 126.39 350.28 125.78
  Q 374.55 114.36 381.13 88.75
  C 383.01 81.40 382.62 68.66 380.50 61.58
  Q 374.31 40.93 355.09 29.45
  A 0.65 0.65 0.0 0 0 354.11 30.04
  Q 354.35 34.78 353.23 39.55
  Q 330.76 25.97 307.55 37.89
  Q 306.62 35.35 306.72 32.63
  A 2.35 2.26 60.5 0 1 306.96 31.69
  Q 307.52 30.62 306.75 28.94
  A 1.23 1.23 0.0 0 0 305.05 28.37
  C 289.31 36.75 277.91 51.56 275.80 69.42
  C 272.75 95.29 286.36 117.78 310.50 127.11
  C 312.30 127.81 313.70 127.84 315.62 127.75
  Q 316.08 127.73 316.19 127.28
  C 317.08 123.73 315.07 122.14 315.24 118.74
  Z"
/>
<path fill="#686769" d="
  M 318.48 19.74
  L 316.02 20.36
  Q 315.50 20.49 315.50 21.02
  L 315.50 22.28
  Q 315.50 22.87 314.93 23.04
  C 294.79 29.12 280.75 43.36 275.33 63.41
  Q 274.78 65.44 274.53 69.81
  C 274.35 72.83 273.41 75.49 273.68 78.40
  C 275.92 102.28 288.10 121.00 311.80 129.16
  Q 312.28 129.33 312.42 129.81
  L 312.94 131.65
  C 279.59 121.03 261.11 84.23 277.03 52.12
  Q 287.75 30.50 311.45 21.41
  Q 315.21 19.97 318.48 19.74
  Z"
/>
<path fill="#ffffff" d="
  M 228.94 29.44
  Q 227.97 32.17 228.64 34.93
  A 0.71 0.70 83.6 0 0 229.31 35.47
  C 238.73 35.61 254.24 32.35 254.50 47.22
  C 254.65 55.61 249.68 60.14 241.69 60.03
  C 236.51 59.96 227.85 60.93 223.71 58.92
  C 220.39 57.30 216.57 52.36 218.43 48.32
  Q 218.64 47.87 219.11 47.72
  C 223.86 46.17 227.17 50.05 231.84 50.42
  Q 236.98 50.82 242.14 50.75
  A 0.91 0.90 11.0 0 0 242.96 50.20
  Q 243.99 47.82 243.08 45.29
  Q 242.89 44.77 242.34 44.77
  C 230.50 44.60 214.80 47.07 217.92 28.90
  C 219.17 21.56 224.53 19.96 231.55 20.00
  C 239.88 20.05 251.39 17.69 253.95 28.64
  A 2.86 2.85 73.5 0 1 252.14 31.98
  C 247.21 33.75 245.46 29.75 241.43 29.18
  Q 235.56 28.36 229.67 28.88
  Q 229.13 28.93 228.94 29.44
  Z"
/>
<path fill="#ffffff" d="
  M 18.57 40.28
  Q 17.25 37.63 17.25 40.59
  L 17.25 58.88
  A 0.87 0.87 0.0 0 1 16.38 59.75
  L 7.75 59.75
  A 0.75 0.75 0.0 0 1 7.00 59.00
  L 7.00 21.04
  Q 7.00 20.33 7.71 20.32
  L 16.60 20.24
  Q 17.20 20.23 17.49 20.77
  L 26.09 36.98
  Q 26.67 38.07 27.25 36.98
  L 35.49 21.30
  A 1.97 1.96 13.8 0 1 37.23 20.25
  L 45.54 20.25
  Q 46.20 20.25 46.31 20.90
  C 46.80 23.90 46.23 27.35 46.31 29.71
  Q 46.84 44.63 46.21 59.55
  Q 46.19 60.03 45.71 60.02
  L 36.58 59.68
  A 0.61 0.60 1.5 0 1 36.00 59.08
  L 36.00 40.94
  Q 36.00 37.66 34.54 40.59
  L 29.72 50.30
  Q 29.41 50.91 28.74 50.91
  L 24.53 50.91
  A 1.09 1.08 76.7 0 1 23.56 50.31
  L 18.57 40.28
  Z"
/>
<path fill="#ffffff" d="
  M 88.75 50.27
  A 9.47 9.47 0.0 0 1 79.28 59.74
  L 63.72 59.74
  A 9.47 9.47 0.0 0 1 54.25 50.27
  L 54.25 29.73
  A 9.47 9.47 0.0 0 1 63.72 20.26
  L 79.28 20.26
  A 9.47 9.47 0.0 0 1 88.75 29.73
  L 88.75 50.27
  Z
  M 78.4869 30.1922
  A 1.43 1.43 0.0 0 0 77.0594 28.7597
  L 65.9594 28.7403
  A 1.43 1.43 0.0 0 0 64.5269 30.1678
  L 64.4931 49.5478
  A 1.43 1.43 0.0 0 0 65.9206 50.9803
  L 77.0206 50.9997
  A 1.43 1.43 0.0 0 0 78.4531 49.5722
  L 78.4869 30.1922
  Z"
/>
<path fill="#ffffff" d="
  M 104.48 28.76
  L 94.91 28.71
  A 0.96 0.96 0.0 0 1 93.96 27.76
  L 93.88 21.22
  A 0.96 0.96 0.0 0 1 94.84 20.25
  L 126.54 20.25
  A 0.96 0.96 0.0 0 1 127.50 21.21
  L 127.50 27.79
  A 0.96 0.96 0.0 0 1 126.54 28.75
  L 116.80 28.75
  A 0.96 0.96 0.0 0 0 115.84 29.71
  L 115.82 58.79
  A 0.96 0.96 0.0 0 1 114.86 59.75
  L 106.47 59.75
  A 0.96 0.96 0.0 0 1 105.51 58.79
  L 105.43 29.72
  A 0.96 0.96 0.0 0 0 104.48 28.76
  Z"
/>
<path fill="#ffffff" d="
  M 167.2249 50.0390
  A 9.81 9.81 0.0 0 1 157.4492 59.8832
  L 142.1493 59.9366
  A 9.81 9.81 0.0 0 1 132.3052 50.1609
  L 132.2351 30.0810
  A 9.81 9.81 0.0 0 1 142.0108 20.2368
  L 157.3107 20.1834
  A 9.81 9.81 0.0 0 1 167.1548 29.9591
  L 167.2249 50.0390
  Z
  M 156.74 29.91
  A 1.14 1.14 0.0 0 0 155.60 28.77
  L 143.90 28.77
  A 1.14 1.14 0.0 0 0 142.76 29.91
  L 142.76 49.81
  A 1.14 1.14 0.0 0 0 143.90 50.95
  L 155.60 50.95
  A 1.14 1.14 0.0 0 0 156.74 49.81
  L 156.74 29.91
  Z"
/>
<path fill="#ffffff" d="
  M 204.90 46.38
  C 207.62 50.52 210.95 54.79 210.44 58.92
  Q 210.37 59.47 209.83 59.58
  Q 205.62 60.45 201.43 59.55
  Q 200.77 59.41 200.43 58.83
  L 193.41 47.28
  Q 193.10 46.78 192.53 46.63
  Q 189.18 45.77 185.81 46.57
  Q 185.35 46.68 185.33 47.16
  L 184.99 59.16
  Q 184.98 59.73 184.41 59.73
  L 175.91 59.75
  A 0.90 0.90 0.0 0 1 175.00 58.85
  L 175.00 21.51
  A 1.25 1.25 0.0 0 1 176.25 20.26
  Q 187.64 20.26 198.82 20.23
  C 206.48 20.21 210.88 23.95 210.95 32.03
  C 211.02 38.98 210.06 40.87 205.02 45.42
  Q 204.55 45.84 204.90 46.38
  Z
  M 200.2436 29.7224
  A 0.92 0.92 0.0 0 0 199.3301 28.7960
  L 186.1904 28.7042
  A 0.92 0.92 0.0 0 0 185.2640 29.6178
  L 185.2164 36.4376
  A 0.92 0.92 0.0 0 0 186.1299 37.3640
  L 199.2696 37.4558
  A 0.92 0.92 0.0 0 0 200.1960 36.5422
  L 200.2436 29.7224
  Z"
/>
<path fill="#969797" d="
  M 347.76 21.19
  C 369.13 28.73 383.54 46.51 386.32 69.19
  C 384.23 68.87 384.73 64.86 384.21 63.15
  Q 382.12 56.36 379.60 50.92
  Q 378.88 49.35 377.41 50.29
  C 369.56 37.77 359.91 29.31 346.14 23.97
  Q 345.47 23.71 346.12 23.41
  Q 347.89 22.59 347.76 21.19
  Z"
/>
<path fill="#838384" d="
  M 307.55 37.89
  C 273.37 57.48 278.76 105.94 315.24 118.74
  C 315.07 122.14 317.08 123.73 316.19 127.28
  Q 316.08 127.73 315.62 127.75
  C 313.70 127.84 312.30 127.81 310.50 127.11
  C 286.36 117.78 272.75 95.29 275.80 69.42
  C 277.91 51.56 289.31 36.75 305.05 28.37
  A 1.23 1.23 0.0 0 1 306.75 28.94
  Q 307.52 30.62 306.96 31.69
  A 2.35 2.26 60.5 0 0 306.72 32.63
  Q 306.62 35.35 307.55 37.89
  Z"
/>
<path fill="#838384" d="
  M 346.58 117.10
  C 379.21 102.30 382.34 59.93 353.23 39.55
  Q 354.35 34.78 354.11 30.04
  A 0.65 0.65 0.0 0 1 355.09 29.45
  Q 374.31 40.93 380.50 61.58
  C 382.62 68.66 383.01 81.40 381.13 88.75
  Q 374.55 114.36 350.28 125.78
  C 348.98 126.39 347.77 126.30 346.38 126.51
  Q 345.66 126.62 345.84 125.91
  Q 346.95 121.51 346.58 117.10
  Z"
/>
<path fill="#ffffff" d="
  M 353.23 39.55
  C 382.34 59.93 379.21 102.30 346.58 117.10
  Q 330.78 124.11 315.24 118.74
  C 278.76 105.94 273.37 57.48 307.55 37.89
  Q 330.76 25.97 353.23 39.55
  Z
  M 299.46 48.17
  C 283.41 63.33 284.41 94.08 302.20 107.61
  C 312.11 116.24 326.26 119.53 339.14 116.13
  C 356.38 111.75 367.22 98.55 369.78 80.99
  C 372.25 66.94 363.95 52.08 353.18 43.47
  Q 346.95 39.52 339.02 36.76
  C 324.73 33.31 309.78 37.80 299.46 48.17
  Z"
/>
<path fill="#dfdfe0" d="
  M 339.02 36.76
  Q 338.74 37.21 338.67 37.83
  Q 335.46 36.55 334.69 40.17
  C 333.07 47.74 330.34 59.94 321.28 61.40
  C 315.97 62.25 305.01 52.86 301.32 49.26
  A 0.72 0.70 57.6 0 0 300.61 49.09
  L 300.21 49.21
  Q 299.97 48.10 299.46 48.17
  C 309.78 37.80 324.73 33.31 339.02 36.76
  Z"
/>
<path fill="#bdbdbd" d="
  M 339.02 36.76
  Q 346.95 39.52 353.18 43.47
  Q 353.02 56.06 352.72 68.00
  Q 352.69 69.31 350.72 71.05
  C 333.80 70.39 342.87 49.29 346.69 41.76
  A 0.62 0.62 0.0 0 0 346.47 40.95
  Q 342.86 38.65 338.67 37.83
  Q 338.74 37.21 339.02 36.76
  Z"
/>
<path fill="#ffffff" d="
  M 338.67 37.83
  Q 342.86 38.65 346.47 40.95
  A 0.62 0.62 0.0 0 1 346.69 41.76
  C 342.87 49.29 333.80 70.39 350.72 71.05
  Q 359.26 71.68 367.13 70.73
  Q 368.74 70.54 368.73 72.16
  L 368.71 80.74
  Q 368.42 81.15 368.48 81.59
  Q 368.62 82.60 367.60 82.50
  Q 358.74 81.66 350.94 82.19
  C 333.56 83.37 343.02 103.64 346.66 111.58
  A 0.63 0.63 0.0 0 1 346.44 112.37
  Q 342.90 114.76 338.73 115.49
  Q 337.22 115.93 335.81 115.31
  Q 335.36 115.11 335.20 114.65
  C 332.61 107.26 331.14 92.37 321.28 91.78
  C 315.01 91.41 304.66 100.45 300.28 104.71
  C 298.26 102.46 294.34 97.98 294.27 95.07
  Q 294.26 94.55 294.69 94.26
  L 304.48 87.65
  C 314.76 80.60 314.82 73.44 305.07 65.78
  L 294.48 58.67
  A 1.06 1.06 0.0 0 1 294.12 57.32
  Q 296.37 52.77 300.21 49.21
  L 300.61 49.09
  A 0.72 0.70 57.6 0 1 301.32 49.26
  C 305.01 52.86 315.97 62.25 321.28 61.40
  C 330.34 59.94 333.07 47.74 334.69 40.17
  Q 335.46 36.55 338.67 37.83
  Z
  M 331.87 69.22
  L 333.40 69.27
  C 336.92 71.33 339.08 60.71 331.51 62.68
  C 326.42 63.99 328.80 70.34 331.87 69.22
  Z
  M 318.46 66.62
  Q 313.93 70.43 318.68 73.49
  Q 319.96 74.09 321.48 73.28
  C 324.53 72.61 325.03 67.09 321.57 66.78
  Q 320.40 66.22 318.46 66.62
  Z
  M 326.20 70.90
  Q 326.72 72.08 328.99 70.35
  Q 329.16 70.22 328.94 70.23
  Q 327.88 70.30 326.78 70.13
  A 0.55 0.55 0.0 0 0 326.20 70.90
  Z
  M 334.7838 73.5414
  A 1.69 0.36 26.4 0 0 333.4301 72.4675
  A 1.69 0.36 26.4 0 0 331.7562 72.0386
  A 1.69 0.36 26.4 0 0 333.1099 73.1125
  A 1.69 0.36 26.4 0 0 334.7838 73.5414
  Z
  M 339.29 73.39
  Q 336.34 73.94 335.94 76.61
  Q 335.85 77.18 335.48 77.62
  L 333.02 80.53
  A 0.19 0.19 0.0 0 0 333.30 80.79
  L 335.61 78.59
  Q 336.06 78.16 336.44 78.66
  Q 337.48 80.02 338.80 80.37
  Q 342.74 80.61 344.06 77.43
  A 1.28 1.23 -45.5 0 0 344.07 76.50
  Q 342.53 72.65 339.29 73.39
  Z
  M 318.22 79.56
  C 315.08 80.60 314.82 84.44 317.87 86.11
  Q 318.91 86.68 318.67 85.52
  Q 318.08 82.72 318.67 79.96
  Q 318.80 79.37 318.22 79.56
  Z
  M 321.25 84.82
  L 320.50 85.69
  Q 320.11 86.14 320.70 86.09
  C 325.62 85.68 323.97 78.35 319.77 79.58
  Q 319.55 79.65 319.78 79.69
  L 321.13 79.96
  Q 321.56 80.05 321.64 80.48
  Q 321.96 82.25 321.66 83.96
  Q 321.58 84.44 321.25 84.82
  Z
  M 330.99 90.65
  L 333.29 90.49
  C 336.14 91.10 337.30 85.53 333.46 83.89
  Q 332.09 83.50 330.59 83.73
  Q 328.92 81.89 326.21 81.56
  Q 325.69 81.50 325.79 82.02
  C 325.92 82.68 328.95 82.59 329.98 83.56
  Q 330.34 83.89 329.98 84.22
  Q 325.80 88.06 330.99 90.65
  Z"
/>
<path fill="#838384" d="
  M 353.18 43.47
  C 363.95 52.08 372.25 66.94 369.78 80.99
  Q 368.78 81.12 368.71 80.74
  L 368.73 72.16
  Q 368.74 70.54 367.13 70.73
  Q 359.26 71.68 350.72 71.05
  Q 352.69 69.31 352.72 68.00
  Q 353.02 56.06 353.18 43.47
  Z"
/>
<path fill="#838384" d="
  M 299.46 48.17
  Q 299.97 48.10 300.21 49.21
  Q 296.37 52.77 294.12 57.32
  A 1.06 1.06 0.0 0 0 294.48 58.67
  L 305.07 65.78
  Q 303.63 76.43 304.48 87.65
  L 294.69 94.26
  Q 294.26 94.55 294.27 95.07
  C 294.34 97.98 298.26 102.46 300.28 104.71
  L 302.20 107.61
  C 284.41 94.08 283.41 63.33 299.46 48.17
  Z"
/>
<path fill="#686769" d="
  M 386.32 69.19
  C 388.91 94.99 374.76 119.08 351.00 129.47
  Q 350.95 127.58 352.70 126.72
  Q 370.33 118.11 379.10 100.12
  C 380.91 96.40 381.83 91.84 383.03 87.55
  C 384.52 82.19 383.75 75.08 383.75 69.48
  C 383.75 67.08 382.71 65.33 382.23 62.99
  Q 380.89 56.38 377.41 50.29
  Q 378.88 49.35 379.60 50.92
  Q 382.12 56.36 384.21 63.15
  C 384.73 64.86 384.23 68.87 386.32 69.19
  Z"
/>
<path fill="#bdbdbd" d="
  M 333.40 69.27
  L 334.57 67.71
  Q 334.86 67.31 334.55 66.94
  Q 333.69 65.91 334.09 64.53
  Q 334.22 64.07 333.85 63.76
  C 331.08 61.47 329.06 66.77 331.87 69.22
  C 328.80 70.34 326.42 63.99 331.51 62.68
  C 339.08 60.71 336.92 71.33 333.40 69.27
  Z"
/>
<path fill="#dfdfe0" d="
  M 333.40 69.27
  L 331.87 69.22
  C 329.06 66.77 331.08 61.47 333.85 63.76
  Q 334.22 64.07 334.09 64.53
  Q 333.69 65.91 334.55 66.94
  Q 334.86 67.31 334.57 67.71
  L 333.40 69.27
  Z"
/>
<path fill="#bdbdbd" d="
  M 305.07 65.78
  C 314.82 73.44 314.76 80.60 304.48 87.65
  Q 303.63 76.43 305.07 65.78
  Z"
/>
<path fill="#f4fbff" d="
  M 321.57 66.78
  Q 322.05 69.82 321.48 73.28
  Q 319.96 74.09 318.68 73.49
  Q 317.96 70.12 318.46 66.62
  Q 320.40 66.22 321.57 66.78
  Z"
/>
<path fill="#969797" d="
  M 318.46 66.62
  Q 317.96 70.12 318.68 73.49
  Q 313.93 70.43 318.46 66.62
  Z"
/>
<path fill="#bdbdbd" d="
  M 321.57 66.78
  C 325.03 67.09 324.53 72.61 321.48 73.28
  Q 322.05 69.82 321.57 66.78
  Z"
/>
<path fill="#f4fbff" d="
  M 125.99 122.02
  Q 125.46 121.75 125.47 120.73
  Q 125.48 119.97 125.02 120.57
  Q 123.94 121.96 122.76 121.74
  Q 115.63 120.46 108.17 120.13
  L 108.74 106.52
  A 0.50 0.49 1.6 0 0 108.24 106.00
  L 89.68 106.00
  Q 89.12 106.00 89.11 106.57
  L 88.95 128.15
  Q 88.94 129.00 88.10 129.00
  L 72.53 129.00
  A 0.56 0.55 90.0 0 1 71.98 128.44
  C 72.05 109.18 73.26 89.39 71.88 70.23
  Q 71.80 69.00 73.03 69.00
  L 88.52 69.00
  A 0.52 0.51 0.5 0 1 89.04 69.52
  L 88.67 91.44
  Q 88.67 91.84 88.43 92.17
  Q 88.33 92.32 88.17 92.41
  Q 87.96 92.54 88.21 92.54
  L 108.22 92.48
  Q 109.68 92.48 109.64 91.02
  L 109.06 70.36
  A 1.33 1.32 -0.8 0 1 110.39 69.00
  L 125.25 69.00
  A 0.76 0.76 0.0 0 1 126.01 69.80
  C 125.54 79.07 126.00 91.18 126.00 97.54
  Q 126.01 109.76 125.99 122.02
  Z"
/>
<path fill="#ffffff" d="
  M 60.71 106.53
  L 60.40 104.77
  Q 60.32 104.33 59.87 104.35
  C 58.16 104.45 56.94 105.23 55.29 105.21
  C 52.50 105.17 47.32 105.24 45.62 106.90
  Q 45.31 107.20 45.27 106.77
  Q 45.21 105.98 44.80 106.52
  L 44.65 106.24
  Q 44.39 105.75 43.83 105.75
  L 16.15 105.75
  A 1.28 1.25 -21.6 0 1 15.24 105.37
  L 7.22 97.12
  A 0.80 0.79 -67.0 0 1 7.00 96.57
  L 7.00 78.90
  Q 7.00 78.36 7.38 77.98
  L 15.40 70.00
  Q 15.77 69.64 16.28 69.62
  Q 32.32 69.06 48.32 69.34
  C 52.74 69.42 56.94 73.79 59.34 77.10
  C 61.42 79.99 60.93 83.65 60.57 86.98
  A 0.58 0.58 0.0 0 1 59.99 87.50
  L 49.82 87.50
  Q 49.38 87.50 49.06 87.20
  L 44.69 83.18
  Q 44.22 82.75 43.59 82.75
  L 23.25 82.75
  A 0.50 0.50 0.0 0 0 22.75 83.25
  L 22.75 91.98
  Q 22.75 92.47 23.23 92.47
  L 50.80 92.57
  A 1.45 1.43 -22.2 0 1 51.82 92.99
  L 60.39 101.41
  Q 60.74 101.75 60.73 102.24
  L 60.71 106.53
  Z"
/>
<path fill="#ffffff" d="
  M 189.71 107.52
  L 189.43 105.71
  A 0.42 0.42 0.0 0 0 188.76 105.44
  C 186.05 107.50 179.15 108.35 176.08 109.01
  C 174.23 109.41 173.18 108.84 173.66 106.67
  Q 173.68 106.57 173.67 106.67
  L 173.30 111.02
  L 173.48 83.48
  Q 173.48 82.90 172.90 82.89
  L 153.33 82.82
  Q 152.79 82.81 152.79 83.36
  L 152.75 111.53
  L 152.38 109.28
  Q 152.32 108.91 152.30 109.28
  L 152.14 111.91
  A 0.67 0.66 85.4 0 1 151.63 112.52
  C 146.48 113.74 142.46 112.54 137.41 111.98
  Q 137.13 111.95 137.07 112.23
  L 136.77 113.77
  L 136.76 78.92
  A 1.33 1.33 0.0 0 1 137.15 77.98
  L 145.64 69.69
  A 1.55 1.54 -66.7 0 1 146.71 69.26
  L 179.73 69.37
  Q 180.21 69.37 180.56 69.71
  L 189.39 78.46
  Q 189.74 78.81 189.74 79.31
  L 189.71 107.52
  Z"
/>
<path fill="#f4fbff" d="
  M 253.97 95.68
  L 239.20 95.33
  Q 238.58 95.31 238.55 94.70
  Q 238.50 93.62 238.00 92.93
  L 237.74 83.58
  Q 237.73 82.96 237.10 82.96
  L 217.95 83.02
  Q 217.39 83.02 217.35 83.58
  Q 216.95 89.20 217.33 94.82
  C 217.45 96.62 216.10 97.81 218.51 98.77
  Q 217.28 100.20 216.21 100.53
  Q 209.24 102.63 202.50 105.44
  Q 202.01 105.64 201.55 105.38
  Q 201.07 105.11 200.97 106.09
  A 0.07 0.07 0.0 0 1 200.84 106.09
  L 200.27 102.23
  L 200.87 70.05
  Q 200.88 69.50 201.43 69.50
  Q 220.94 69.50 240.27 69.48
  C 245.67 69.48 249.86 73.05 252.69 77.29
  C 255.07 80.85 254.06 91.47 253.97 95.68
  Z"
/>
<path fill="#dfdfe0" d="
  M 326.78 70.13
  Q 327.88 70.30 328.94 70.23
  Q 329.16 70.22 328.99 70.35
  Q 326.72 72.08 326.20 70.90
  A 0.55 0.55 0.0 0 1 326.78 70.13
  Z"
/>
<ellipse fill="#dfdfe0" cx="0.00" cy="0.00" transform="translate(333.27,72.79) rotate(26.4)" rx="1.69" ry="0.36"/>
<path fill="#dfdfe0" d="
  M 338.80 80.37
  Q 338.92 78.75 337.87 77.50
  Q 337.53 77.08 337.76 76.60
  L 339.29 73.39
  Q 342.53 72.65 344.07 76.50
  A 1.28 1.23 -45.5 0 1 344.06 77.43
  Q 342.74 80.61 338.80 80.37
  Z"
/>
<path fill="#bdbdbd" d="
  M 339.29 73.39
  L 337.76 76.60
  Q 337.53 77.08 337.87 77.50
  Q 338.92 78.75 338.80 80.37
  Q 337.48 80.02 336.44 78.66
  Q 336.06 78.16 335.61 78.59
  L 333.30 80.79
  A 0.19 0.19 0.0 0 1 333.02 80.53
  L 335.48 77.62
  Q 335.85 77.18 335.94 76.61
  Q 336.34 73.94 339.29 73.39
  Z"
/>
<path fill="#bdbdbd" d="
  M 317.87 86.11
  C 314.82 84.44 315.08 80.60 318.22 79.56
  Q 318.80 79.37 318.67 79.96
  Q 318.08 82.72 318.67 85.52
  Q 318.91 86.68 317.87 86.11
  Z"
/>
<path fill="#bdbdbd" d="
  M 321.66 83.96
  Q 321.96 82.25 321.64 80.48
  Q 321.56 80.05 321.13 79.96
  L 319.78 79.69
  Q 319.55 79.65 319.77 79.58
  C 323.97 78.35 325.62 85.68 320.70 86.09
  Q 320.11 86.14 320.50 85.69
  L 321.25 84.82
  Q 321.58 84.44 321.66 83.96
  Z"
/>
<path fill="#969797" d="
  M 368.71 80.74
  Q 368.78 81.12 369.78 80.99
  C 367.22 98.55 356.38 111.75 339.14 116.13
  Q 338.29 116.03 338.73 115.49
  Q 342.90 114.76 346.44 112.37
  A 0.63 0.63 0.0 0 0 346.66 111.58
  C 343.02 103.64 333.56 83.37 350.94 82.19
  Q 358.74 81.66 367.60 82.50
  Q 368.62 82.60 368.48 81.59
  Q 368.42 81.15 368.71 80.74
  Z"
/>
<path fill="#bdbdbd" d="
  M 330.59 83.73
  C 330.96 84.93 330.22 85.75 330.20 86.76
  Q 330.15 88.62 330.99 90.65
  Q 325.80 88.06 329.98 84.22
  Q 330.34 83.89 329.98 83.56
  C 328.95 82.59 325.92 82.68 325.79 82.02
  Q 325.69 81.50 326.21 81.56
  Q 328.92 81.89 330.59 83.73
  Z"
/>
<path fill="#f4fbff" d="
  M 333.46 83.89
  Q 333.95 87.18 333.29 90.49
  L 330.99 90.65
  Q 330.15 88.62 330.20 86.76
  C 330.22 85.75 330.96 84.93 330.59 83.73
  Q 332.09 83.50 333.46 83.89
  Z"
/>
<path fill="#bdbdbd" d="
  M 333.46 83.89
  C 337.30 85.53 336.14 91.10 333.29 90.49
  Q 333.95 87.18 333.46 83.89
  Z"
/>
<path fill="#dfdfe0" d="
  M 338.73 115.49
  Q 338.29 116.03 339.14 116.13
  C 326.26 119.53 312.11 116.24 302.20 107.61
  L 300.28 104.71
  C 304.66 100.45 315.01 91.41 321.28 91.78
  C 331.14 92.37 332.61 107.26 335.20 114.65
  Q 335.36 115.11 335.81 115.31
  Q 337.22 115.93 338.73 115.49
  Z"
/>
<path fill="#a9e0ff" d="
  M 238.00 92.93
  Q 238.50 93.62 238.55 94.70
  Q 238.58 95.31 239.20 95.33
  L 253.97 95.68
  L 254.01 103.56
  Q 254.01 104.03 253.68 104.37
  L 245.50 112.66
  Q 245.17 112.99 244.70 112.99
  L 218.53 113.00
  A 1.34 1.33 -12.9 0 0 217.33 114.91
  L 217.58 115.44
  A 1.89 1.85 32.5 0 1 217.77 116.26
  L 217.71 128.17
  A 1.30 1.29 -89.4 0 1 216.39 129.47
  L 201.56 129.15
  Q 200.21 129.12 200.21 127.77
  L 200.27 102.23
  L 200.84 106.09
  A 0.07 0.07 0.0 0 0 200.97 106.09
  Q 201.07 105.11 201.55 105.38
  Q 202.01 105.64 202.50 105.44
  Q 209.24 102.63 216.21 100.53
  Q 217.28 100.20 218.51 98.77
  L 236.65 98.96
  A 1.02 1.02 0.0 0 0 237.68 98.00
  L 238.00 92.93
  Z"
/>
<path fill="#c4eaff" d="
  M 60.71 106.53
  L 60.74 119.66
  Q 60.74 120.18 60.37 120.54
  L 52.18 128.61
  A 1.38 1.35 -66.7 0 1 51.23 129.00
  L 16.33 129.00
  Q 15.88 129.00 15.57 128.69
  L 7.38 120.51
  Q 7.00 120.13 7.00 119.59
  L 7.00 111.81
  A 1.00 1.00 0.0 0 1 8.09 110.81
  Q 12.92 111.25 17.75 110.83
  Q 18.14 110.79 18.43 111.06
  L 23.14 115.40
  Q 23.52 115.75 24.04 115.75
  L 43.40 115.75
  Q 44.85 115.75 44.84 114.29
  L 44.80 106.52
  Q 45.21 105.98 45.27 106.77
  Q 45.31 107.20 45.62 106.90
  C 47.32 105.24 52.50 105.17 55.29 105.21
  C 56.94 105.23 58.16 104.45 59.87 104.35
  Q 60.32 104.33 60.40 104.77
  L 60.71 106.53
  Z"
/>
<path fill="#a9e0ff" d="
  M 189.71 107.52
  Q 190.35 113.81 189.76 120.19
  A 1.59 1.57 70.6 0 1 189.29 121.19
  L 181.90 128.50
  Q 181.52 128.88 180.99 128.92
  Q 167.55 130.12 156.32 129.31
  Q 150.12 128.86 146.44 129.02
  A 1.22 1.20 -23.2 0 1 145.54 128.67
  L 137.09 120.21
  Q 136.74 119.87 136.74 119.38
  L 136.77 113.77
  L 137.07 112.23
  Q 137.13 111.95 137.41 111.98
  C 142.46 112.54 146.48 113.74 151.63 112.52
  A 0.67 0.66 85.4 0 0 152.14 111.91
  L 152.30 109.28
  Q 152.32 108.91 152.38 109.28
  L 152.75 111.53
  L 152.77 114.76
  Q 152.77 115.25 153.26 115.25
  L 172.74 115.25
  Q 173.28 115.25 173.28 114.70
  L 173.30 111.02
  L 173.67 106.67
  Q 173.68 106.57 173.66 106.67
  C 173.18 108.84 174.23 109.41 176.08 109.01
  C 179.15 108.35 186.05 107.50 188.76 105.44
  A 0.42 0.42 0.0 0 1 189.43 105.71
  L 189.71 107.52
  Z"
/>
<path fill="#a9e0ff" d="
  M 108.17 120.13
  Q 115.63 120.46 122.76 121.74
  Q 123.94 121.96 125.02 120.57
  Q 125.48 119.97 125.47 120.73
  Q 125.46 121.75 125.99 122.02
  L 125.98 127.97
  A 1.09 1.08 -89.5 0 1 124.88 129.06
  L 109.32 128.84
  Q 108.25 128.82 108.24 127.75
  L 108.17 120.13
  Z"
/>
</svg>
